<svg width="256" height="290" viewBox="0 0 256 290" fill="none" xmlns="http://www.w3.org/2000/svg">
<path d="M127.399 289.322L23.2165 260.401L0 0H255.11L231.868 260.36L127.399 289.322Z" fill="#E44D26"/>
<path d="M127.555 266.95L211.972 243.547L231.833 21.0573H127.555V266.95Z" fill="#F16529"/>
<path d="M82.375 84.9321H127.555V52.9947H47.4718L48.2363 61.563L56.0858 149.573H127.555V117.636H85.2937L82.375 84.9321Z" fill="#EBEBEB"/>
<path d="M89.5726 165.542H57.5128L61.9872 215.688L127.408 233.849L127.555 233.808V200.58L127.415 200.617L91.8464 191.013L89.5726 165.542Z" fill="#EBEBEB"/>
<path d="M127.444 149.573H166.771L163.064 190.993L127.444 200.607V233.833L192.917 215.688L193.397 210.292L200.902 126.212L201.682 117.636H127.444V149.573Z" fill="white"/>
<path d="M127.444 84.8541V84.9321H204.588L205.228 77.7536L206.683 61.563L207.447 52.9947H127.444V84.8541Z" fill="white"/>
</svg>
